<?xml version="1.0" encoding="UTF-8"?>
<svg id="Capa_2" data-name="Capa 2" xmlns="http://www.w3.org/2000/svg" viewBox="0 0 404.87 404.87">
  <defs>
    <style>
      .cls-1 {
        fill: #505050;
        stroke: #000;
        stroke-miterlimit: 10;
        stroke-width: 6px;
      }
    </style>
  </defs>
  <g id="Capa_5" data-name="Capa 5">
    <path class="cls-1" d="M337.32,295.96l.73-19.97,20.8-1.54-.02-19.88,19.97-.71,1.54-20.8c1.48-1.48,18.79,2.7,21.52-2.47v-57.93l-2.48-2.48h-40.55v-19.87s-19.97-.71-19.97-.71l-1.32-19.73c1.68-5.14,16.61-1.81,21.29-2.71l-.02-19.88c7.15-.02,14.37.05,21.52,0-.06-4.44,1.18-18.89-1.55-20.79l-19.97-.71.02-19.88-20.8-1.54-.71-19.97h-19.88l.02,21.53-21.53-.02-.94,19.9-20.57-.02.02-19.88-19.88.02c-.05-7.15.09-14.37,0-21.52-7.15-.04-14.37.03-21.52,0V3h-62.89v41.38h-19.87c-1.48,1.48,2.7,18.78-2.47,21.52h-40.55c-.03-7.15.04-14.36,0-21.52-7.15-.08-14.37.05-21.52,0-.02-7.15.05-14.37,0-21.52-6.6.07-13.27-.05-19.87,0l.02,21.53-21.53-.02.02,21.53-21.53-.02c-.04,6.6.08,13.27,0,19.87,7.15.04,14.37-.03,21.52,0,.05,7.15-.09,14.37,0,21.52,7.15.05,14.37-.03,21.52,0v40.55c-2.74,5.18-20.04.99-21.52,2.47v19.87s-41.37,0-41.37,0v62.89h41.38c-.05,7.15.07,14.37,0,21.52,7.15.08,14.37-.05,21.52,0l-.24,18.81c-1.68,5.14-16.61,1.81-21.29,2.71l.02,19.88-19.97.71c-2.68,1.87-1.55,16.41-1.55,20.79,7.15.04,14.37-.03,21.52,0l-.02,19.88,19.97.71,1.54,20.8,18.92.02,2.5-20.82,19.97-.71-.02-19.88h21.53l-.02,19.88,19.97.71,1.54,20.8h19.87s0,40.54,0,40.54l2.48,2.48h57.93l2.48-2.48v-40.55c7.15-.06,14.37.08,21.52,0,.08-7.15-.06-14.37,0-21.52h41.38c.03,7.15-.05,14.36,0,21.52,7.15.08,14.37-.05,21.52,0,.02,7.15-.05,14.37,0,21.52,6.6-.07,13.27.05,19.87,0l1.54-20.8,19.97-.71.71-19.97,20.8-1.54c.04-6.6-.08-13.27,0-19.87-7.15-.04-14.37.03-21.52,0,.06-7.15-.06-14.37,0-21.52-7.15-.04-14.37.03-21.52,0ZM295.95,254.57h-19.87s-.71,19.97-.71,19.97l-20.8,1.54v19.87s-105.92,0-105.92,0v-19.87s-19.97-.71-19.97-.71l-1.54-20.8h-19.87s0-105.92,0-105.92h19.87s.71-19.97.71-19.97l20.8-1.54v-19.87s105.92,0,105.92,0v19.87s19.97.71,19.97.71l1.54,20.8h19.87s0,105.92,0,105.92Z"/>
  </g>
</svg>