<?xml version="1.0" encoding="UTF-8"?>
<svg id="Capa_2" data-name="Capa 2" xmlns="http://www.w3.org/2000/svg" viewBox="0 0 330 474.11">
  <defs>
    <style>
      .cls-1 {
        fill: red;
        stroke: #000;
        stroke-miterlimit: 10;
        stroke-width: 5px;
      }
    </style>
  </defs>
  <g id="Capa_5" data-name="Capa 5">
    <g>
      <path class="cls-1" d="M219.5,40.5h35.5l1.28,1.5c.03.41-.78.75-.78,1v140c-.75,1.02-.87,1.08-2.04,1.09-47.45.15-95.03-.45-142.51-.64-2.05,0-3.92.68-5.78.67-9.31-.06-18.79-1.24-28.17-.62l-2.5-1.5V42l1.5-1.5h34.5V4l1.5-1.5h106l1.5,1.5v36.5ZM146.5,40.5h-35v36h35v-36ZM218.5,40.5h-35v36h35v-36ZM182.5,76.5h-35v34h35v-34ZM146.5,111.5h-35v35h35v-35ZM218.5,111.5h-35v35h35v-35Z"/>
      <path class="cls-1" d="M39.5,327.5h34.5l1.5,1.5v34.5h180v-34.5l1.5-1.5h34.5v-106.5l1.5-1.5h33l1.5,1.5v105l-1.5,1.5h-33l-1.5,1.5v34l-1.46,1.26-32.93-.55-1.62,1.29v34.5h-72v36h34.5l1.5,1.5v34.5h-105.5c-.57,0-3.5.73-3.5-1.5v-33l1.5-1.5h34.5v-36h-70.5l-1.5-1.5v-34.5h-34.5l-1.5-1.5v-34.5H4l-1.5-1.5v-105l1.5-1.5h34l1.5,1.5v106.5Z"/>
      <path class="cls-1" d="M201,219.5h-125l-1.5,1.5v69l1.5,1.5h34.5v34.5c0,2.23,2.93,1.5,3.5,1.5h105.5v-36h36v-72h-54.5Z"/>
    </g>
  </g>
</svg>